<?xml version='1.0' encoding='iso-8859-1'?>
<svg version="1.1" xmlns="http://www.w3.org/2000/svg" viewBox="0 0 463 463" xmlns:xlink="http://www.w3.org/1999/xlink" enable-background="new 0 0 463 463">
  <g>
    <path d="m455.5,384c-48.034,0-76.61-12.492-104.245-24.573-26.346-11.517-53.589-23.427-95.755-23.427-36.417,0-71.335,14.282-102.144,26.882-26.554,10.86-51.635,21.118-73.856,21.118h-24.346c14.219-6.338 30.437-14.263 48.182-22.934 67.534-32.998 151.581-74.066 216.164-74.066 78.971,0 130.992,38.121 131.508,38.506 3.313,2.478 8.008,1.805 10.492-1.506 2.485-3.313 1.813-8.015-1.5-10.5-1.883-1.412-39.723-29.28-101-38.536v-12.7c13.759-2.731 24-12.795 24-24.764 0-5.857-2.852-20.228-7.46-33.233-6.74-19.021-14.603-28.267-24.04-28.267-6.592,0-12.416,4.519-17.626,13.723-1.536-9.212-4.573-21.669-8.669-33.35-8.582-24.475-18.299-36.373-29.705-36.373s-21.123,11.898-29.705,36.374c-6.05,17.254-9.795,36.213-9.795,43.883 0,15.447 13.795,28.345 32,31.171v36.221c-43.449-22.454-87.086-31.944-129.882-28.203-34.582,3.024-61.274,14.162-77.944,23.273-22.148-8.505-46.189-14.719-72.674-14.719-4.142,0-7.5,3.358-7.5,7.5 0,4.142 3.358,7.5 7.5,7.5 43.405,0 80.988,18.669 114.147,35.14 14.591,7.248 27.94,13.878 40.541,18.365-22.703,10.204-44.824,21.012-65.437,31.083-38.322,18.726-74.518,36.412-89.251,36.412-4.142,0-7.5,3.358-7.5,7.5s3.358,7.5 7.5,7.5h72c25.17,0 51.577-10.8 79.534-22.234 30.972-12.667 62.999-25.766 96.466-25.766 39.031,0 63.666,10.77 89.747,22.171 29.047,12.698 59.084,25.829 110.253,25.829 4.142,0 7.5-3.358 7.5-7.5s-3.358-7.5-7.5-7.5zm-136-112c-5.394,0-10.9,0.265-16.5,0.767v-41.34c7.2-1.117 13.71-3.806 18.949-7.61-1.254,5.839-1.949,10.797-1.949,13.683 0,11.968 10.241,22.032 24,24.764v10.874c-7.848-0.728-16.018-1.138-24.5-1.138zm21.407-60.715c4.685-13.967 8.987-19.067 10.593-20.142 1.606,1.075 5.908,6.175 10.593,20.142 3.803,11.337 5.907,22.697 5.907,26.215 0,3.899-3.752,7.459-9,9.261v-7.261c0-4.142-3.358-7.5-7.5-7.5s-7.5,3.358-7.5,7.5v7.261c-5.248-1.802-9-5.362-9-9.261 0-3.518 2.104-14.878 5.907-26.215zm-69.907-11.028c0-5.593 3.405-23.105 8.95-38.919 7.668-21.868 14.216-26.338 15.55-26.338s7.882,4.47 15.55,26.337c5.545,15.814 8.95,33.326 8.95,38.919 0,7.301-7.255,13.687-17,15.911v-16.667c0-4.142-3.358-7.5-7.5-7.5s-7.5,3.358-7.5,7.5v16.668c-9.745-2.224-17-8.611-17-15.911zm-142.68,84.449c-9.589-4.763-19.534-9.701-29.895-14.353 15.151-6.916 35.793-13.76 61-15.965 37.499-3.277 75.856,4.422 114.272,22.887-28.88,6.102-59.327,16.942-89.296,29.553-16.065-2.262-34.655-11.478-56.081-22.122z"/>
    <path d="m71.5,135h17.223c1.028,5.325 3.121,10.275 6.061,14.61l-12.185,12.185c-2.929,2.929-2.929,7.678 0,10.606 1.464,1.464 3.384,2.197 5.303,2.197s3.839-0.732 5.303-2.197l12.185-12.185c4.335,2.939 9.285,5.032 14.61,6.061v17.223c0,4.142 3.358,7.5 7.5,7.5s7.5-3.358 7.5-7.5v-17.223c5.325-1.028 10.275-3.122 14.61-6.061l12.185,12.185c1.464,1.464 3.384,2.197 5.303,2.197s3.839-0.732 5.303-2.197c2.929-2.929 2.929-7.678 0-10.606l-12.185-12.185c2.939-4.335 5.033-9.285 6.061-14.61h17.223c4.142,0 7.5-3.358 7.5-7.5s-3.358-7.5-7.5-7.5h-17.223c-1.028-5.325-3.121-10.275-6.061-14.61l12.185-12.185c2.929-2.929 2.929-7.678 0-10.606-2.929-2.929-7.678-2.929-10.606,0l-12.185,12.185c-4.335-2.939-9.285-5.032-14.61-6.061v-17.223c0-4.142-3.358-7.5-7.5-7.5s-7.5,3.358-7.5,7.5v17.223c-5.325,1.028-10.275,3.122-14.61,6.061l-12.185-12.185c-2.929-2.929-7.678-2.929-10.606,0-2.929,2.929-2.929,7.678 0,10.606l12.185,12.185c-2.939,4.335-5.033,9.285-6.061,14.61h-17.223c-4.142,0-7.5,3.358-7.5,7.5s3.358,7.5 7.5,7.5zm56-32c13.509,0 24.5,10.991 24.5,24.5s-10.991,24.5-24.5,24.5-24.5-10.991-24.5-24.5 10.991-24.5 24.5-24.5z"/>
  </g>
</svg>
